PathFileType	4	(X/Y/Z)	Patient4_TMGait_0pt3_01_right_26.trc.trc
DataRate	CameraRate	NumFrames	NumMarkers	Units	OrigDataRate	OrigDataStartFrame	OrigNumFrames
50.000000000000	50.000000000000	4	33	mm	50.000000000000	71	       141
Frame#	Time	Sacral			L.Shoulder			Chest			R.Shoulder			Neck			R.ASIS			L.ASIS			R.Thigh.Superior			R.Thigh.Lateral			R.Thigh.Inferior			R.Patella			L.Thigh.Superior			L.Thigh.Lateral			L.Thigh.Inferior			L.Patella			L.Shank.Superior			L.Shank.Lateral			L.Shank.Inferior			R.Shank.Superior			R.Shank.Lateral			R.Shank.Inferior			R.Heel			R.Midfoot.Superior			R.Midfoot.Lateral			R.Toe			L.Heel			L.Midfoot.Lateral			L.Midfoot.Superior			L.Toe			L.Elbow			L.Wrist			R.Elbow			R.Wrist			
		X1	Y1	Z1	X2	Y2	Z2	X3	Y3	Z3	X4	Y4	Z4	X5	Y5	Z5	X6	Y6	Z6	X7	Y7	Z7	X8	Y8	Z8	X9	Y9	Z9	X10	Y10	Z10	X11	Y11	Z11	X12	Y12	Z12	X13	Y13	Z13	X14	Y14	Z14	X15	Y15	Z15	X16	Y16	Z16	X17	Y17	Z17	X18	Y18	Z18	X19	Y19	Z19	X20	Y20	Z20	X21	Y21	Z21	X22	Y22	Z22	X23	Y23	Z23	X24	Y24	Z24	X25	Y25	Z25	X26	Y26	Z26	X27	Y27	Z27	X28	Y28	Z28	X29	Y29	Z29	X30	Y30	Z30	X31	Y31	Z31	X32	Y32	Z32	X33	Y33	Z33	

71	49.290000000000	694.345259065540	997.893784256074	592.149814609693	831.234172671536	1418.855044195732	368.624100304059	969.162651165130	1350.797283255713	501.489005750706	933.107821831200	1432.899112738616	686.605232707936	856.699295227651	1483.912276202997	522.830625880190	938.481835500789	929.960411549818	665.130579018841	877.198827871629	952.833795915187	397.071853607177	945.481798066712	720.653355598816	627.982266818797	855.039047221463	615.888052013136	692.665208285988	913.274225234250	559.090223215855	603.386195245842	900.167629319258	467.528467500031	607.390929998300	957.798668556253	763.832930592176	417.706719964362	898.014084575825	636.966372161680	345.843344840807	1004.349160423537	576.830706630780	400.955522437968	1027.133654315588	508.262118215424	395.748924436999	1003.010937440285	435.548566498333	383.093636612438	922.063002775848	316.104146141873	327.481201037978	997.607765483411	205.205307603662	376.198074788921	851.592696375973	384.591455366429	612.198197484687	764.485152087619	293.740718228835	676.001082397918	780.365879520794	196.830835337742	605.014253017951	618.674061727756	46.017270022836	573.176663006141	791.745679638051	95.904969490443	608.872504185761	701.985097617804	37.157448392920	647.092767586693	910.261780102038	40.099772403173	635.890361585454	892.043400046899	38.889527967911	408.190937691411	964.768885797076	38.854397291952	326.713310458139	1045.790002773442	104.458235144824	350.778268520156	1173.878704749330	59.787754388597	319.555523320955	658.920064354840	1106.647002491982	310.746891256510	610.548428834613	851.874671036942	351.257667495683	1111.541793459111	1150.005543587866	806.302447084570	1368.215261449028	1142.030877840942	771.993366883775	
72	49.310000000000	694.892517392025	997.690996098525	589.315654794108	832.369930873542	1417.604727140171	363.968437304845	970.575820355739	1349.502522519520	496.600251942311	935.121355671883	1432.216752818680	681.546662166072	858.195613982570	1483.018513793477	517.900563965260	939.249895004218	929.086279368604	661.604801363598	876.806590697881	951.496401290322	393.806628528915	944.856429474966	719.557442808439	625.201549730054	853.658869807369	615.618438322409	690.494943882718	911.202253045577	558.070849156400	601.394834494282	897.176240531148	466.602528287331	605.752304627691	957.038344169849	761.998800685701	414.072282109273	895.360528006851	635.046377675009	343.823362569074	1002.411782580150	575.132488723810	397.729812993743	1024.212367843029	506.252982845259	393.336512148768	1000.383050524045	433.498780027761	381.128784371041	919.135252110651	314.060473717150	326.470561218308	994.073634078213	203.268451329788	375.640751365529	848.061091674966	384.040299561528	610.965508301805	760.281604434469	294.165169503606	675.221254557552	775.443032781043	196.832826730106	604.664879524623	612.734789170907	46.670088015581	573.415934609015	786.005145146200	96.020102436979	608.959185569307	696.081963677732	37.417686877137	647.240716048257	904.307330370537	39.871602302666	635.922255380329	887.487967139842	38.392392007380	408.732562173737	959.770541208107	37.838165771425	326.843772578172	1041.529984294631	102.396261549271	350.695036014068	1169.117900475558	56.275763122724	318.762683441837	661.900301544481	1104.180494132861	307.607644833222	613.997956664877	849.252907645298	348.965423166450	1117.146613523684	1152.436350731445	800.921563580112	1373.584379982983	1150.416179761203	763.977857987683	
73	49.330000000000	695.556389842609	997.576023325675	586.113462815717	833.671895826366	1416.487572146620	359.109449936933	972.118024411191	1348.324711513697	491.543837171378	937.188790257895	1431.604480274721	676.334716183518	859.785860171530	1482.219180313389	512.755151535604	940.090408597630	928.297092082517	657.761772114423	876.632624646750	950.334313040993	390.224827375963	944.430542367250	718.553637090376	622.209669846718	852.535824034171	615.415094320612	688.098135909703	909.471006196022	557.129615857242	599.217227113874	894.556908700705	465.701393456307	603.955737991983	956.905627174894	760.777077447150	410.593322906235	894.025111109601	633.623575123535	341.703407207829	1001.652784340006	573.997915818870	394.682508662815	1022.490661397551	504.586214598040	391.045713894255	998.699176991575	431.687186589523	379.294314253044	916.767424682174	312.602920060657	325.420278811702	990.381394540607	201.599344512026	375.229590436559	844.843271634090	383.560059881556	609.637290477465	756.299897994556	294.757547369687	674.371351459137	770.697529537527	196.960107895412	604.325219172956	606.842933353811	47.597298973400	573.727750348079	780.374514799612	96.200837243804	609.101454398591	690.227046969989	37.801311297367	647.434868327997	898.384146026615	39.601321579869	635.966293017147	882.046132202441	38.309511870654	409.284643775735	953.928418732131	37.196360155421	327.034198394375	1036.506741239769	100.640593256120	350.727759538337	1163.578220959989	52.862012142798	318.093075580656	665.695305786891	1101.434320565561	303.793528164458	618.626130765216	846.298005680251	345.502154100577	1122.203843691318	1154.577476912224	795.477923640620	1378.365631636860	1157.330635651686	756.352395663343	
74	49.350000000000	696.343771289754	997.624731709478	582.505443190062	835.118282464031	1415.604540981358	354.093170452312	973.774714600124	1347.347060241702	486.347222546617	939.309117576636	1431.124692463865	671.004455371778	861.457044649545	1481.585719965547	507.457267271637	940.982056906734	927.657260116735	653.602465968356	876.722837907234	949.418175519939	386.307019188886	944.089194415099	717.685928882146	619.040641437892	851.505089999802	615.359627408561	685.513927022648	907.910329355400	556.320616597358	596.909611718927	892.135364904186	464.905306699256	602.066057654278	957.386467434468	760.190691568326	407.312047447293	893.987951809501	632.730249591568	339.440576699425	1001.966833471474	573.381767077171	391.853281661928	1021.894805624945	503.279770344524	388.904389396339	997.910120212311	430.151645053067	377.607729609794	915.034962225873	311.699147726851	324.294336859950	986.703709894959	200.238601273596	374.953947562884	841.801990742120	383.223505804841	608.265523753749	752.423734159297	295.561279126239	673.480758749149	766.073020367705	197.258117857332	604.025565080857	601.002146601754	48.820107805316	574.113180104940	774.854084526104	96.454054752371	609.309715309869	684.417008861915	38.319585148550	647.677419520229	892.491535315275	39.296868240815	636.023028888637	876.061238328030	38.545336404703	409.772174699647	947.621651581462	36.899743961173	327.244191785164	1031.013285419049	99.264068000096	350.852012122496	1157.604236402846	49.763209418689	317.578698383493	670.014238770534	1098.702882847686	299.306614122048	624.225394444780	843.286935335182	340.884428346756	1126.794927110648	1156.508210919706	789.959318028253	1382.719992859998	1162.788422607546	749.180759334286	
